<svg width="30" height="31" viewBox="0 0 30 31" fill="none" xmlns="http://www.w3.org/2000/svg">
<path d="M17.29 21.21C17.5482 21.3286 17.839 21.3556 18.1146 21.2868C18.3902 21.218 18.6342 21.0573 18.8063 20.8312L19.25 20.25C19.4829 19.9395 19.7848 19.6875 20.132 19.5139C20.4791 19.3404 20.8619 19.25 21.25 19.25H25C25.663 19.25 26.2989 19.5134 26.7678 19.9822C27.2366 20.4511 27.5 21.087 27.5 21.75V25.5C27.5 26.163 27.2366 26.7989 26.7678 27.2678C26.2989 27.7366 25.663 28 25 28C19.0326 28 13.3097 25.6295 9.0901 21.4099C4.87053 17.1903 2.5 11.4674 2.5 5.5C2.5 4.83696 2.76339 4.20107 3.23223 3.73223C3.70107 3.26339 4.33696 3 5 3H8.75C9.41304 3 10.0489 3.26339 10.5178 3.73223C10.9866 4.20107 11.25 4.83696 11.25 5.5V9.25C11.25 9.63811 11.1596 10.0209 10.9861 10.368C10.8125 10.7152 10.5605 11.0171 10.25 11.25L9.665 11.6888C9.43552 11.864 9.27377 12.1132 9.20724 12.3942C9.1407 12.6751 9.17348 12.9705 9.3 13.23C11.0084 16.6998 13.818 19.506 17.29 21.21Z" stroke="white" stroke-linecap="round" stroke-linejoin="round"/>
</svg>
