<svg width="30" height="32" viewBox="0 0 30 32" fill="none" xmlns="http://www.w3.org/2000/svg">
<path d="M28.0078 13.0369C28.0078 20.4339 19.0838 28.1377 16.0871 30.5169C15.808 30.7099 15.4682 30.8143 15.1189 30.8143C14.7696 30.8143 14.4298 30.7099 14.1506 30.5169C11.1539 28.1377 2.22998 20.4339 2.22998 13.0369C2.22998 9.8936 3.58791 6.87904 6.00505 4.65639C8.42218 2.43373 11.7005 1.18506 15.1189 1.18506C18.5372 1.18506 21.8156 2.43373 24.2327 4.65639C26.6498 6.87904 28.0078 9.8936 28.0078 13.0369Z" stroke="white" stroke-linecap="round" stroke-linejoin="round"/>
<path d="M15.119 17.4817C17.7884 17.4817 19.9523 15.4918 19.9523 13.0372C19.9523 10.5826 17.7884 8.59277 15.119 8.59277C12.4496 8.59277 10.2856 10.5826 10.2856 13.0372C10.2856 15.4918 12.4496 17.4817 15.119 17.4817Z" stroke="white" stroke-linecap="round" stroke-linejoin="round"/>
</svg>
