<svg width="266" height="386" viewBox="0 0 266 386" fill="none" xmlns="http://www.w3.org/2000/svg">
<path d="M3.50709 288.125L0 289.269V150.215H93.6343L92.0546 153.939C89.2458 160.553 86.0498 166.931 82.5479 172.896L80.1391 176.996C80.1391 176.996 69.5095 194.113 55.5383 206.895C55.5383 206.895 62.7086 191.353 65.2601 176.996H26.781V248.988L30.8165 246.62C57.8539 230.75 80.5314 208.068 96.4039 181.029C102.469 170.697 107.53 159.724 111.445 148.414C113.221 143.294 114.816 137.861 116.186 132.264L117 128.949H100.928L148.326 83.6556L148.287 89.9742C148.167 109.142 145.392 128.259 140.038 146.792C136.863 157.789 132.825 168.463 128.039 178.523C107.299 222.097 71.8799 257.515 28.3084 278.254C20.397 282.018 12.0541 285.34 3.50709 288.125ZM28.5438 336.716C102.116 309.907 159.69 252.334 186.5 178.757C190.261 168.43 193.389 157.8 195.821 147.055C204.888 97.5037 204.378 61.8476 204.37 61.5154L204.318 58.5705L214.275 59.3368L175.926 0L176.436 9.99717C177.699 34.7369 178.387 72.3861 174.503 111.178L172.202 128.547C171.074 135.163 169.657 141.78 167.988 148.21C165.119 159.258 161.411 170.194 156.962 180.716C133.079 237.203 86.9861 283.297 30.5027 307.179C21.2679 311.084 11.6644 314.434 1.95883 317.137L0 317.684V345.323L3.33712 344.475C11.8606 342.312 20.3421 339.702 28.5438 336.716ZM230.369 82.9415L230.066 92.4038C229.514 109.519 226.881 131.894 223.509 148.083C219.913 165.37 214.667 182.467 207.925 198.895C178.468 270.64 120.426 328.681 48.6818 358.138C33.6201 364.322 17.9464 369.26 2.09221 372.814L0 373.282V385.119H234.904V242.71L229.891 251.657C225.722 259.092 221.247 266.407 216.589 273.401L208.123 286.106C208.123 286.106 194.655 305.585 186.332 313.908C186.332 313.908 198.898 308.707 208.123 302.746V358.338H106.912L114.277 353.43C149.689 329.837 179.614 299.914 203.217 264.49C216.045 245.236 226.765 224.576 235.085 203.085C242.379 184.24 247.887 164.532 251.452 144.509L251.99 141.474L265.922 145.158L230.369 82.9415Z" fill="url(#paint0_linear_168_38)"/>
<path d="M5.35622 379.763V377.563C20.7893 373.983 36.0368 369.12 50.7166 363.093C123.776 333.096 182.883 273.989 212.881 200.93C219.751 184.183 225.092 166.771 228.753 149.174C231.601 135.494 233.934 117.464 234.962 101.773L254.925 136.71L247.733 134.809L246.179 143.573C242.675 163.248 237.261 182.621 230.09 201.151C221.909 222.285 211.369 242.596 198.76 261.521C175.552 296.351 146.129 325.773 111.306 348.972L89.2144 363.694H213.48V287.728L221.046 276.371C223.962 271.996 226.805 267.497 229.548 262.921V379.763L5.35622 379.763ZM5.35622 281.854C12.4542 279.399 19.3849 276.568 26.0069 273.418C68.4722 253.205 102.989 218.687 123.203 176.222C127.867 166.417 131.8 156.015 134.891 145.306C139.513 129.314 142.162 112.878 142.79 96.3556L114.285 123.593H123.828L121.388 133.538C119.979 139.296 118.336 144.891 116.505 150.166C112.478 161.807 107.268 173.103 101.023 183.741C84.6872 211.569 61.348 234.91 33.5286 251.24L21.4248 258.342V171.639H77.074L77.9292 170.184C80.6465 165.554 83.1834 160.652 85.4875 155.571H5.3562L5.35622 281.854ZM5.35622 338.413C12.585 336.475 19.7537 334.217 26.7105 331.684C98.7944 305.417 155.202 249.009 181.468 176.924C185.15 166.809 188.223 156.362 190.551 146.092C199.524 97.067 199.022 61.9692 199.014 61.6109L198.857 52.7789L203.91 53.1673L182.226 19.6151C183.16 44.1104 183.262 77.4625 179.812 111.882L177.482 129.446C176.329 136.216 174.88 142.982 173.172 149.556C170.238 160.862 166.443 172.047 161.895 182.802C137.475 240.561 90.3443 287.692 32.5898 312.113C23.7656 315.843 14.6146 319.079 5.35626 321.742L5.35622 338.413Z" fill="#FBD54C"/>
<defs>
<linearGradient id="paint0_linear_168_38" x1="174.861" y1="203.734" x2="61.615" y2="329.849" gradientUnits="userSpaceOnUse">
<stop stop-color="#FFC808"/>
<stop offset="0.997537" stop-color="#FAA21B"/>
</linearGradient>
</defs>
</svg>
