<svg width="1551" height="505" viewBox="0 0 1551 505" fill="none" xmlns="http://www.w3.org/2000/svg">
<g clip-path="url(#clip0_168_37)">
<rect width="377" height="505" fill="black"/>
<path d="M677.64 323.289L672.328 354.273H677.197L677.728 351.175H684.324L684.855 354.273H689.724L684.412 323.289H677.64ZM678.569 346.306L681.048 331.92L683.483 346.306H678.569ZM717.167 323.289H708.491V354.273H713.36V340.729H717.167C719.955 340.729 721.017 341.747 721.017 344.58V354.273H725.886V344.58C725.886 341.968 725.001 339.799 723.452 338.294C725.001 336.745 725.886 334.532 725.886 332.009C725.886 326.742 722.257 323.289 717.167 323.289ZM713.36 335.86V328.158H717.167C719.955 328.158 721.017 329.176 721.017 332.009C721.017 334.753 719.955 335.86 717.167 335.86H713.36ZM745.185 323.289V354.273H750.054V343.385L751.869 340.596L757.933 354.273H763.687L755.011 335.683L762.89 323.289H757.579L750.054 334.93V323.289H745.185ZM785.464 323.289L780.153 354.273H785.022L785.553 351.175H792.148L792.679 354.273H797.548L792.236 323.289H785.464ZM786.394 346.306L788.872 331.92L791.307 346.306H786.394ZM816.315 323.289V354.273H821.184V335.948L828.842 354.273H833.711V323.289H828.842V342.632L820.742 323.289H816.315ZM886.56 323.289H878.372V354.273H886.516C892.27 354.273 895.767 350.467 895.767 345.022C895.767 342.057 894.749 339.666 893.023 338.073C894.439 336.568 895.236 334.488 895.236 331.965C895.236 326.874 891.828 323.289 886.56 323.289ZM883.241 349.404V340.64H886.516C889.703 340.64 890.898 341.747 890.898 345.022C890.898 348.209 889.792 349.404 886.516 349.404H883.241ZM883.241 335.771V328.158H886.56C889.393 328.158 890.367 329.176 890.367 331.965C890.367 334.798 889.349 335.771 886.56 335.771H883.241ZM914.181 323.289V346.04C914.181 351.086 917.633 354.716 922.9 354.716C927.946 354.716 931.576 351.263 931.576 346.04V323.289H926.707V346.04C926.707 348.829 925.645 349.847 922.9 349.847C920.067 349.847 919.049 348.785 919.049 346.04V323.289H914.181ZM951.051 323.289V354.273H955.92V323.289H951.051ZM975.794 323.289V354.273H990.401V349.404H980.663V323.289H975.794ZM1017.98 323.289H1009.26V354.273H1017.98C1023.2 354.273 1026.65 350.644 1026.65 345.598V331.965C1026.65 326.919 1023.2 323.289 1017.98 323.289ZM1014.13 349.404V328.158H1017.98C1020.77 328.158 1021.78 329.22 1021.78 331.965V345.598C1021.78 348.342 1020.77 349.404 1017.98 349.404H1014.13ZM1057.5 331.522V333.735H1062.37V331.522C1062.37 326.255 1058.79 322.847 1053.7 322.847C1048.39 322.847 1044.98 326.432 1044.98 331.522C1044.98 336.391 1049.01 338.737 1052.06 340.507C1055.33 342.411 1057.5 343.606 1057.5 346.04C1057.5 348.873 1056.49 349.847 1053.7 349.847C1050.82 349.847 1049.85 348.829 1049.85 346.04V343.827H1044.98V346.04C1044.98 351.131 1048.39 354.716 1053.7 354.716C1058.79 354.716 1062.37 351.308 1062.37 346.04C1062.37 340.684 1057.77 338.206 1054.54 336.258C1051.53 334.576 1049.85 333.558 1049.85 331.522C1049.85 328.734 1050.82 327.715 1053.7 327.715C1056.49 327.715 1057.5 328.689 1057.5 331.522ZM1106.28 323.289V354.273H1111.15V340.773H1120V335.904H1111.15V328.158H1120.89V323.289H1106.28ZM1140.28 323.289V346.04C1140.28 351.086 1143.73 354.716 1148.99 354.716C1154.04 354.716 1157.67 351.263 1157.67 346.04V323.289H1152.8V346.04C1152.8 348.829 1151.74 349.847 1148.99 349.847C1146.16 349.847 1145.14 348.785 1145.14 346.04V323.289H1140.28ZM1192.68 323.289H1175.42V328.158H1181.62V354.273H1186.49V328.158H1192.68V323.289ZM1210.3 323.289V346.04C1210.3 351.086 1213.75 354.716 1219.02 354.716C1224.06 354.716 1227.69 351.263 1227.69 346.04V323.289H1222.83V346.04C1222.83 348.829 1221.76 349.847 1219.02 349.847C1216.19 349.847 1215.17 348.785 1215.17 346.04V323.289H1210.3ZM1255.85 323.289H1247.17V354.273H1252.04V340.729H1255.85C1258.63 340.729 1259.7 341.747 1259.7 344.58V354.273H1264.57V344.58C1264.57 341.968 1263.68 339.799 1262.13 338.294C1263.68 336.745 1264.57 334.532 1264.57 332.009C1264.57 326.742 1260.94 323.289 1255.85 323.289ZM1252.04 335.86V328.158H1255.85C1258.63 328.158 1259.7 329.176 1259.7 332.009C1259.7 334.753 1258.63 335.86 1255.85 335.86H1252.04ZM1283.86 323.289V354.273H1298.47V349.404H1288.73V340.773H1297.59V335.904H1288.73V328.158H1298.47V323.289H1283.86Z" fill="white"/>
<path d="M425.905 208.575L419 248.855H425.33L426.016 244.827H434.581L435.267 248.855H441.596L434.691 208.575H425.905ZM427.1 238.497L430.331 219.796L433.496 238.497H427.1ZM464.901 208.575H453.636V248.855H459.965V231.238H464.901C468.53 231.238 469.924 232.566 469.924 236.262V248.855H476.254V236.262C476.254 232.854 475.103 230.043 473.089 228.073C475.103 226.059 476.254 223.182 476.254 219.907C476.254 213.068 471.518 208.575 464.901 208.575ZM459.965 224.908V214.905H464.901C468.53 214.905 469.924 216.233 469.924 219.907C469.924 223.47 468.53 224.908 464.901 224.908H459.965ZM488.957 208.575V248.855H495.287V234.691L497.655 231.083L505.534 248.855H513.014L501.727 224.687L511.974 208.575H505.069L495.287 223.713V208.575H488.957ZM528.949 208.575L522.044 248.855H528.373L529.06 244.827H537.647L538.333 248.855H544.662L537.757 208.575H528.949ZM530.166 238.497L533.375 219.796L536.54 238.497H530.166ZM556.68 208.575V248.855H563.009V225.041L572.968 248.855H579.298V208.575H572.968V233.717L562.434 208.575H556.68ZM611.92 219.287V238.143C611.92 244.716 616.412 249.43 623.273 249.43C629.824 249.43 634.538 244.937 634.538 238.143V228.361H623.03V234.691H628.208V238.143C628.208 241.773 626.836 243.1 623.273 243.1C619.577 243.1 618.249 241.728 618.249 238.143V219.287C618.249 215.591 619.643 214.33 623.273 214.33C626.88 214.33 628.208 215.702 628.208 219.287V222.164H634.538V219.287C634.538 212.714 630.045 208 623.273 208C616.7 208 611.92 212.382 611.92 219.287ZM651.8 208.575L644.895 248.855H651.225L651.911 244.827H660.498L661.184 248.855H667.514L660.609 208.575H651.8ZM653.018 238.497L656.227 219.796L659.391 238.497H653.018ZM696.971 208.575H674.529V214.905H682.585V248.855H688.915V214.905H696.971V208.575ZM708.191 208.575V248.855H727.18V242.525H714.521V231.304H726.029V224.975H714.521V214.905H727.18V208.575H708.191ZM760.621 208.575V248.855H766.95V231.304H778.459V224.975H766.95V214.905H779.609V208.575H760.621ZM790.365 219.287V238.143C790.365 244.716 794.858 249.43 801.697 249.43C808.27 249.43 812.984 244.937 812.984 238.143V219.287C812.984 212.714 808.491 208 801.697 208C795.146 208 790.365 212.382 790.365 219.287ZM796.695 238.143V219.287C796.695 215.591 798.067 214.33 801.697 214.33C805.326 214.33 806.654 215.702 806.654 219.287V238.143C806.654 241.773 805.26 243.1 801.697 243.1C798.023 243.1 796.695 241.728 796.695 238.143ZM837.04 208.575H825.753V248.855H832.083V231.238H837.04C840.648 231.238 842.042 232.566 842.042 236.262V248.855H848.372V236.262C848.372 232.854 847.221 230.043 845.207 228.073C847.221 226.059 848.372 223.182 848.372 219.907C848.372 213.068 843.658 208.575 837.04 208.575ZM832.083 224.908V214.905H837.04C840.648 214.905 842.042 216.233 842.042 219.907C842.042 223.47 840.648 224.908 837.04 224.908H832.083ZM901.199 208.575H878.758V214.905H886.814V248.855H893.144V214.905H901.199V208.575ZM923.685 208.575H912.42V248.855H918.75V231.238H923.685C927.314 231.238 928.687 232.566 928.687 236.262V248.855H935.016V236.262C935.016 232.854 933.865 230.043 931.851 228.073C933.865 226.059 935.016 223.182 935.016 219.907C935.016 213.068 930.302 208.575 923.685 208.575ZM918.75 224.908V214.905H923.685C927.314 214.905 928.687 216.233 928.687 219.907C928.687 223.47 927.314 224.908 923.685 224.908H918.75ZM952.699 208.575L945.794 248.855H952.124L952.81 244.827H961.375L962.061 248.855H968.39L961.485 208.575H952.699ZM953.894 238.497L957.126 219.796L960.29 238.497H953.894ZM991.761 208.575H980.43V248.855H991.761C998.556 248.855 1003.05 244.141 1003.05 237.568V219.862C1003.05 213.289 998.556 208.575 991.761 208.575ZM986.76 242.525V214.905H991.761C995.391 214.905 996.719 216.277 996.719 219.862V237.568C996.719 241.153 995.391 242.525 991.761 242.525H986.76ZM1016 208.575V248.855H1034.98V242.525H1022.32V231.304H1033.83V224.975H1022.32V214.905H1034.98V208.575H1016ZM1081.92 224.798H1078.76C1075.13 224.798 1073.82 223.536 1073.82 219.862C1073.82 216.233 1075.09 214.905 1078.76 214.905H1086.88V208.575H1078.76C1071.92 208.575 1067.49 213.245 1067.49 219.862C1067.49 223.182 1068.58 226.015 1070.53 227.918C1068.18 230.22 1066.79 233.495 1066.79 237.413C1066.79 244.716 1072.54 249.43 1079.4 249.43C1088.61 249.43 1093.43 242.879 1093.43 233.96V231.127H1098.15V224.798H1084.91V231.127H1087.1V233.96C1087.1 240.334 1085.05 243.1 1079.4 243.1C1075.31 243.1 1073.12 241.308 1073.12 237.413C1073.12 232.964 1074.8 231.127 1078.83 231.127H1081.92V224.798ZM1129.46 208.575V248.855H1135.79V208.575H1129.46ZM1149.25 208.575V248.855H1155.58V225.041L1165.54 248.855H1171.87V208.575H1165.54V233.717L1155 208.575H1149.25ZM1190.39 248.855H1199.2L1206.1 208.575H1199.77L1194.82 237.634L1189.82 208.575H1183.49L1190.39 248.855ZM1217.9 208.575V248.855H1236.89V242.525H1224.23V231.304H1235.74V224.975H1224.23V214.905H1236.89V208.575H1217.9ZM1264.86 219.287V222.164H1271.19V219.287C1271.19 212.426 1266.52 208 1259.91 208C1253 208 1248.57 212.67 1248.57 219.287C1248.57 225.617 1253.8 228.649 1257.78 230.95C1262.03 233.429 1264.86 234.978 1264.86 238.143C1264.86 241.839 1263.54 243.1 1259.91 243.1C1256.17 243.1 1254.9 241.773 1254.9 238.143V235.266H1248.57V238.143C1248.57 244.76 1253 249.43 1259.91 249.43C1266.52 249.43 1271.19 245.004 1271.19 238.143C1271.19 231.194 1265.19 227.963 1260.99 225.44C1257.09 223.249 1254.9 221.921 1254.9 219.287C1254.9 215.658 1256.17 214.33 1259.91 214.33C1263.54 214.33 1264.86 215.591 1264.86 219.287ZM1303.53 208.575H1281.09V214.905H1289.14V248.855H1295.47V214.905H1303.53V208.575ZM1314.75 208.575V248.855H1321.08V225.041L1328.56 248.855H1332.01L1339.49 222.673V248.855H1345.82V208.575H1337.19L1330.04 233.54L1322.23 208.575H1314.75ZM1359.05 208.575V248.855H1378.04V242.525H1365.38V231.304H1376.89V224.975H1365.38V214.905H1378.04V208.575H1359.05ZM1391.57 208.575V248.855H1397.89V225.041L1407.85 248.855H1414.18V208.575H1407.85V233.717L1397.32 208.575H1391.57ZM1447.78 208.575H1425.34V214.905H1433.39V248.855H1439.72V214.905H1447.78V208.575ZM1478.21 219.287V238.143C1478.21 244.716 1482.7 249.43 1489.56 249.43C1496.11 249.43 1500.83 244.937 1500.83 238.143V235.266H1494.5V238.143C1494.5 241.773 1493.13 243.1 1489.56 243.1C1485.87 243.1 1484.54 241.728 1484.54 238.143V219.287C1484.54 215.591 1485.93 214.33 1489.56 214.33C1493.17 214.33 1494.5 215.702 1494.5 219.287V222.164H1500.83V219.287C1500.83 212.714 1496.34 208 1489.56 208C1482.99 208 1478.21 212.382 1478.21 219.287ZM1512.73 219.287V238.143C1512.73 244.716 1517.23 249.43 1524.09 249.43C1530.64 249.43 1535.35 244.937 1535.35 238.143V219.287C1535.35 212.714 1530.86 208 1524.09 208C1517.52 208 1512.73 212.382 1512.73 219.287ZM1519.06 238.143V219.287C1519.06 215.591 1520.46 214.33 1524.09 214.33C1527.7 214.33 1529.02 215.702 1529.02 219.287V238.143C1529.02 241.773 1527.65 243.1 1524.09 243.1C1520.39 243.1 1519.06 241.728 1519.06 238.143ZM1544.67 242.525V248.855H1551V242.525H1544.67Z" fill="white"/>
<path d="M59.5071 343.125L56 344.269V205.215H149.634L148.055 208.939C145.246 215.553 142.05 221.931 138.548 227.896L136.139 231.996C136.139 231.996 125.509 249.113 111.538 261.895C111.538 261.895 118.709 246.353 121.26 231.996H82.781V303.988L86.8165 301.62C113.854 285.75 136.531 263.068 152.404 236.029C158.469 225.697 163.53 214.724 167.445 203.414C169.221 198.294 170.816 192.861 172.186 187.264L173 183.949H156.928L204.326 138.656L204.287 144.974C204.167 164.142 201.392 183.259 196.038 201.792C192.863 212.789 188.825 223.463 184.039 233.523C163.299 277.097 127.88 312.515 84.3084 333.254C76.397 337.018 68.0541 340.34 59.5071 343.125ZM84.5438 391.716C158.116 364.907 215.69 307.334 242.5 233.757C246.261 223.43 249.389 212.8 251.821 202.055C260.888 152.504 260.378 116.848 260.37 116.515L260.318 113.57L270.275 114.337L231.926 55L232.436 64.9972C233.699 89.7369 234.387 127.386 230.503 166.178L228.202 183.547C227.074 190.163 225.657 196.78 223.988 203.21C221.119 214.258 217.411 225.194 212.962 235.716C189.079 292.203 142.986 338.297 86.5027 362.179C77.2679 366.084 67.6644 369.434 57.9588 372.137L56 372.684V400.323L59.3371 399.475C67.8606 397.312 76.3421 394.702 84.5438 391.716ZM286.369 137.942L286.066 147.404C285.514 164.519 282.881 186.894 279.509 203.083C275.913 220.37 270.667 237.467 263.925 253.895C234.468 325.64 176.426 383.681 104.682 413.138C89.6201 419.322 73.9464 424.26 58.0922 427.814L56 428.282V440.119H290.904V297.71L285.891 306.657C281.722 314.092 277.247 321.407 272.589 328.401L264.123 341.106C264.123 341.106 250.655 360.585 242.332 368.908C242.332 368.908 254.898 363.707 264.123 357.746V413.338H162.912L170.277 408.43C205.689 384.837 235.614 354.914 259.217 319.49C272.045 300.236 282.765 279.576 291.085 258.085C298.379 239.24 303.887 219.532 307.452 199.509L307.99 196.474L321.922 200.158L286.369 137.942Z" fill="url(#paint0_linear_168_37)"/>
<path d="M61.3562 434.763V432.563C76.7893 428.983 92.0368 424.12 106.717 418.093C179.776 388.096 238.883 328.989 268.881 255.93C275.751 239.183 281.092 221.771 284.753 204.174C287.601 190.494 289.934 172.464 290.962 156.773L310.925 191.71L303.733 189.809L302.179 198.573C298.675 218.248 293.261 237.621 286.09 256.151C277.909 277.285 267.369 297.596 254.76 316.521C231.552 351.351 202.129 380.773 167.306 403.972L145.214 418.694H269.48V342.728L277.046 331.371C279.962 326.996 282.805 322.497 285.548 317.921V434.763L61.3562 434.763ZM61.3562 336.854C68.4542 334.399 75.3849 331.568 82.0069 328.418C124.472 308.205 158.989 273.687 179.203 231.222C183.867 221.417 187.8 211.015 190.891 200.306C195.513 184.314 198.162 167.878 198.79 151.356L170.285 178.593H179.828L177.388 188.538C175.979 194.296 174.336 199.891 172.505 205.166C168.478 216.807 163.268 228.103 157.023 238.741C140.687 266.569 117.348 289.91 89.5286 306.24L77.4248 313.342V226.639H133.074L133.929 225.184C136.647 220.554 139.183 215.652 141.488 210.571H61.3562L61.3562 336.854ZM61.3562 393.413C68.585 391.475 75.7537 389.217 82.7105 386.684C154.794 360.417 211.202 304.009 237.468 231.924C241.15 221.809 244.223 211.362 246.551 201.092C255.524 152.067 255.022 116.969 255.014 116.611L254.857 107.779L259.91 108.167L238.226 74.6151C239.16 99.1104 239.262 132.462 235.812 166.882L233.482 184.446C232.329 191.216 230.88 197.982 229.172 204.556C226.238 215.862 222.443 227.047 217.895 237.802C193.475 295.561 146.344 342.692 88.5898 367.113C79.7656 370.843 70.6146 374.079 61.3563 376.742L61.3562 393.413Z" fill="#FBD54C"/>
</g>
<defs>
<linearGradient id="paint0_linear_168_37" x1="230.861" y1="258.734" x2="117.615" y2="384.849" gradientUnits="userSpaceOnUse">
<stop stop-color="#FFC808"/>
<stop offset="0.997537" stop-color="#FAA21B"/>
</linearGradient>
<clipPath id="clip0_168_37">
<rect width="1551" height="505" fill="white"/>
</clipPath>
</defs>
</svg>
